<?xml version="1.0" standalone="no"?>
<!DOCTYPE svg PUBLIC "-//W3C//DTD SVG 20010904//EN"
 "http://www.w3.org/TR/2001/REC-SVG-20010904/DTD/svg10.dtd">
<svg version="1.0" xmlns="http://www.w3.org/2000/svg"
 width="1195.000000pt" height="1280.000000pt" viewBox="0 0 1195.000000 1280.000000"
 preserveAspectRatio="xMidYMid meet">
<metadata>
Created by potrace 1.15, written by Peter Selinger 2001-2017
</metadata>
<g transform="translate(0.000000,1280.000000) scale(0.100000,-0.100000)"
fill="#000000" stroke="none">
<path d="M5710 12789 c-4355 -9 -5557 -22 -5652 -58 -68 -26 -70 -209 -28
-2016 15 -619 39 -1996 50 -2855 10 -767 18 -1556 45 -4565 16 -1754 31 -2870
41 -3032 4 -70 10 -103 18 -103 27 0 89 79 103 132 39 149 40 579 3 3558 -10
791 -23 1897 -40 3345 -14 1217 -29 2352 -40 3050 -6 330 -13 938 -16 1350 -8
941 -6 965 88 965 49 0 48 12 -2 35 -75 34 -50 38 173 31 116 -4 343 -11 502
-16 387 -12 2491 -12 4495 0 2643 16 4580 30 5465 40 574 7 832 7 840 0 19
-20 20 -196 11 -1530 -5 -876 -4 -2608 5 -5115 16 -4315 17 -5684 6 -5736 l-7
-36 -108 -7 c-193 -11 -936 -26 -2162 -41 -1202 -15 -1895 -22 -4765 -50
-2561 -25 -3740 -46 -3759 -65 -17 -17 7 -44 45 -52 110 -23 2175 -20 7439 12
2242 14 3418 34 3442 58 21 21 29 101 40 407 10 256 9 739 -5 2410 -10 1150
-22 3579 -27 5400 -10 3250 -19 4251 -43 4410 l-12 80 -1210 1 c-665 0 -2886
-3 -4935 -7z"/>
<path d="M9800 12470 c-311 -4 -1739 -15 -3175 -24 -4738 -29 -5629 -38 -6005
-66 -204 -15 -198 -14 -218 -58 -24 -57 -27 -564 -8 -1842 17 -1209 31 -2421
46 -4230 25 -2989 31 -3555 40 -4150 19 -1189 41 -1753 70 -1801 13 -20 393
-23 1250 -10 1623 25 4117 48 6810 61 1075 6 2110 14 2300 20 326 9 698 35
710 49 3 3 3 374 -1 824 -11 1201 -38 4507 -49 5997 -6 713 -10 1791 -10 2395
-1 1266 -15 2575 -30 2719 -5 55 -15 105 -20 110 -14 14 -923 17 -1710 6z
m-3084 -420 c209 -54 362 -157 634 -431 220 -221 379 -337 487 -355 34 -5 42
-3 55 18 46 71 55 218 12 218 -21 0 -17 13 20 66 83 117 115 214 116 344 0 85
22 130 73 149 70 26 167 -24 253 -131 126 -157 156 -280 97 -390 -63 -119
-185 -206 -300 -216 -58 -4 -64 -7 -82 -38 -11 -18 -48 -54 -83 -80 -144 -106
-191 -115 -406 -79 -86 14 -174 31 -194 36 -36 9 -104 58 -446 320 -244 188
-317 217 -520 206 -130 -7 -212 -28 -274 -70 -63 -42 -66 -54 -20 -74 163 -70
207 -97 287 -177 92 -91 148 -170 204 -285 66 -137 88 -261 47 -261 -8 0 -52
38 -99 84 -67 67 -101 92 -168 125 -220 106 -447 115 -689 29 -332 -117 -463
-144 -669 -135 -191 8 -334 46 -631 165 -195 77 -316 114 -390 115 -50 2 -65
-1 -67 -13 -2 -8 38 -65 88 -125 51 -61 109 -132 130 -158 37 -47 49 -77 30
-77 -4 0 -65 44 -135 99 -181 140 -336 217 -511 252 -78 15 -262 16 -395 1
-385 -44 -912 -42 -950 3 -8 9 -3 19 20 38 37 32 90 51 359 135 l214 67 -64 3
c-75 4 -282 -14 -389 -34 -110 -21 -169 -42 -229 -83 -101 -68 -189 -38 -210
73 -22 116 47 202 217 271 201 82 594 131 967 122 252 -6 258 -8 952 -236 657
-216 748 -241 879 -248 87 -5 112 -2 170 17 148 47 347 169 550 336 302 249
498 360 719 409 95 21 248 18 341 -5z m-5007 -95 c59 -30 55 -78 -16 -196 -77
-128 -103 -189 -110 -254 -8 -81 33 -161 131 -252 172 -160 431 -268 676 -280
142 -7 152 -11 114 -47 -122 -115 -321 -118 -709 -10 -377 105 -585 302 -585
553 0 85 20 162 71 270 68 145 103 177 231 211 89 23 159 25 197 5z m8784
-150 c209 -54 359 -223 441 -495 60 -203 55 -373 -13 -410 -31 -16 -83 -12
-118 10 -29 17 -53 66 -53 108 0 57 -131 205 -255 287 -122 81 -172 98 -275
92 -222 -12 -410 -169 -490 -410 -38 -113 -77 -292 -90 -412 -19 -175 -25
-184 -80 -117 -112 136 -101 592 21 835 109 217 240 346 451 447 157 75 329
99 461 65z m-6907 -1063 c43 -22 85 -64 152 -153 l42 -56 -96 -144 c-111 -165
-132 -210 -140 -288 -9 -95 11 -284 36 -336 32 -65 56 -75 187 -72 89 2 113
-1 135 -15 36 -24 62 -23 110 4 80 45 175 203 219 364 19 70 21 94 15 206 -8
151 -2 170 71 216 61 38 233 132 244 132 15 0 100 -121 146 -205 25 -47 64
-140 88 -206 24 -66 53 -131 66 -145 41 -43 92 -28 239 70 156 105 523 275
770 359 240 82 351 97 756 104 659 12 1009 -45 1534 -250 191 -74 521 -240
655 -329 330 -218 675 -611 864 -981 72 -141 103 -240 109 -343 4 -78 3 -82
-24 -113 -25 -27 -44 -34 -143 -56 -139 -31 -203 -59 -258 -114 -58 -59 -96
-128 -138 -253 -61 -183 -44 -260 90 -394 54 -54 93 -82 160 -115 87 -43 91
-44 187 -44 133 0 132 1 136 -165 4 -159 -5 -207 -67 -335 -97 -203 -303 -477
-521 -695 -148 -148 -235 -216 -390 -304 -63 -35 -139 -82 -168 -104 -80 -61
-399 -160 -667 -208 -123 -22 -425 -26 -528 -6 -157 30 -335 103 -464 190 -33
22 -111 84 -173 136 -163 138 -212 170 -246 162 -56 -14 -310 -309 -364 -423
-81 -170 -144 -525 -121 -685 23 -162 190 -317 491 -453 139 -63 141 -64 149
-42 79 203 116 277 177 354 115 145 272 244 444 279 194 39 343 -28 434 -196
39 -72 56 -141 56 -235 0 -256 -171 -504 -448 -647 -99 -52 -157 -53 -199 -5
-43 49 -67 142 -68 262 0 90 3 105 28 155 38 73 82 117 205 202 56 39 105 75
108 79 13 21 -42 6 -114 -30 -146 -75 -266 -200 -293 -305 -15 -60 -38 -76
-110 -76 -44 0 -63 5 -90 25 -62 45 -97 55 -225 65 -250 19 -391 82 -538 241
-112 121 -166 255 -196 483 -6 44 -12 81 -14 84 -7 6 -193 -330 -231 -418 -57
-133 -152 -405 -289 -827 -144 -446 -167 -530 -168 -611 -2 -129 85 -279 202
-347 8 -5 64 -25 124 -45 l110 -36 -90 -25 c-126 -34 -204 -32 -286 9 -107 52
-196 166 -239 302 -29 92 -26 217 13 516 28 214 32 279 32 464 0 190 -3 232
-27 365 -37 204 -45 341 -23 424 33 129 96 171 267 179 100 4 106 3 132 -19
15 -13 40 -58 57 -99 40 -96 78 -162 93 -157 23 7 73 93 141 242 80 174 139
273 172 285 32 12 78 84 138 214 100 216 167 316 299 442 137 132 357 263 619
368 159 64 213 71 493 70 400 -3 555 -25 563 -80 8 -58 -55 -71 -378 -79 -444
-11 -623 -41 -815 -138 -104 -52 -125 -77 -63 -77 42 0 167 -51 289 -118 58
-32 130 -69 159 -81 137 -59 361 -27 597 84 170 80 264 156 284 228 13 49 61
133 136 235 269 364 354 986 232 1689 -55 321 -141 553 -249 678 -27 30 -86
102 -131 158 -112 139 -180 209 -274 279 -270 203 -632 345 -1060 415 -83 13
-166 18 -340 18 -201 0 -244 -3 -344 -23 -303 -61 -570 -193 -861 -423 -132
-105 -521 -492 -585 -582 -63 -91 -92 -176 -106 -322 -15 -156 -6 -2536 15
-3965 l15 -1015 93 -180 c127 -247 197 -341 373 -505 373 -346 981 -626 1559
-717 172 -27 536 -25 672 5 403 87 900 371 1200 684 141 148 303 386 403 592
125 260 180 489 203 846 18 293 8 339 -161 685 -170 347 -273 504 -396 605
-74 61 -112 115 -94 136 5 7 30 15 55 19 122 18 356 150 633 358 125 94 207
139 256 140 41 1 107 -47 247 -181 192 -184 410 -435 496 -572 99 -157 214
-440 228 -562 6 -51 5 -57 -17 -71 -13 -9 -80 -30 -149 -47 -68 -17 -145 -40
-169 -52 -128 -62 -199 -184 -251 -431 -26 -120 -25 -189 0 -243 31 -63 302
-324 372 -358 53 -26 61 -27 152 -20 85 6 96 5 102 -10 10 -26 -37 -137 -130
-304 -95 -169 -151 -256 -210 -323 -23 -26 -67 -98 -99 -160 -69 -137 -156
-249 -327 -419 -215 -215 -403 -368 -683 -554 -78 -52 -153 -106 -167 -121
-25 -26 -25 -27 -5 -42 56 -41 296 35 483 154 156 99 240 176 357 324 82 104
146 169 166 169 19 0 31 -55 24 -115 -7 -69 -13 -82 -46 -99 -13 -6 -54 -56
-91 -111 -81 -120 -186 -237 -270 -300 -256 -192 -535 -260 -743 -180 -112 43
-126 41 -530 -98 -281 -97 -493 -128 -745 -108 -259 21 -457 63 -980 211 -526
149 -661 176 -819 167 -205 -12 -372 -110 -629 -369 l-134 -135 -123 43 c-183
63 -277 105 -307 135 l-28 27 16 53 c9 29 40 101 70 159 63 123 84 191 83 275
-1 190 -142 305 -394 322 -114 7 -256 -11 -314 -40 -119 -60 -185 -342 -131
-551 20 -76 20 -77 1 -119 -23 -51 -57 -85 -225 -220 l-130 -105 -129 122
c-135 128 -187 166 -225 166 -13 0 -78 -33 -145 -74 -307 -185 -328 -191 -682
-190 -378 0 -410 10 -588 183 -169 164 -217 261 -217 440 0 109 28 285 65 406
34 113 84 191 205 319 137 146 222 251 329 411 270 403 361 668 281 825 -27
53 -184 212 -254 258 -165 107 -305 92 -390 -41 -43 -68 -56 -108 -56 -172 0
-99 46 -167 159 -234 95 -56 120 -101 100 -175 -25 -89 -145 -158 -279 -158
-83 -1 -127 14 -178 57 -92 78 -202 284 -202 380 0 73 112 237 265 390 110
110 178 156 270 183 215 64 451 50 660 -37 125 -53 197 -101 290 -195 181
-184 238 -414 156 -620 -74 -185 -181 -328 -427 -573 -213 -212 -236 -239
-213 -254 21 -15 137 -3 200 21 81 30 169 90 202 137 32 46 60 64 105 65 45 1
72 -26 72 -74 0 -81 -111 -250 -264 -404 -93 -92 -111 -105 -231 -166 -153
-78 -287 -170 -356 -246 -55 -60 -65 -85 -50 -125 10 -25 15 -27 65 -27 76 0
110 -30 126 -108 22 -104 59 -120 247 -102 193 18 326 76 458 202 126 119 228
278 319 500 143 347 196 665 238 1408 17 301 16 3481 -1 3975 -22 655 -44 775
-213 1205 -120 303 -296 638 -469 890 -112 164 -145 183 -309 184 -88 1 -101
-2 -160 -31 -151 -74 -253 -234 -285 -450 -49 -326 8 -429 350 -631 238 -140
350 -233 398 -332 35 -72 41 -122 32 -275 l-7 -126 -102 8 c-151 12 -345 9
-389 -6 -25 -8 -39 -20 -43 -36 -9 -35 0 -42 65 -49 95 -11 201 -44 271 -86
36 -21 85 -41 110 -45 66 -10 125 -48 215 -139 85 -85 194 -238 215 -301 20
-60 8 -158 -25 -201 -51 -66 -115 -70 -213 -10 -131 80 -246 89 -272 21 -14
-36 3 -71 64 -135 69 -71 108 -130 162 -244 56 -119 77 -209 72 -307 -10 -167
-100 -245 -222 -191 -32 15 -80 56 -158 136 -61 64 -117 116 -125 116 -16 0
-18 -144 -3 -317 12 -148 -1 -280 -35 -350 -35 -70 -133 -160 -226 -205 -124
-61 -222 -82 -379 -81 -198 1 -339 44 -484 147 -70 50 -156 138 -156 160 0 31
-24 65 -51 75 -35 12 -45 52 -42 171 4 181 54 320 148 409 121 114 262 145
389 82 125 -61 176 -141 176 -276 0 -77 -34 -149 -96 -204 -58 -51 -101 -70
-189 -86 -40 -7 -78 -15 -84 -19 -19 -12 -12 -33 20 -66 87 -86 215 -109 317
-56 254 130 427 635 410 1193 -5 133 -10 172 -32 246 -43 142 -118 284 -326
607 -289 450 -415 706 -470 957 -30 137 -31 348 -1 490 54 258 170 492 345
696 130 151 316 280 490 340 90 31 93 31 291 32 256 0 343 -17 565 -111 164
-69 336 -33 480 101 73 68 131 112 166 126 75 30 150 28 220 -9z m5354 -80
c246 -97 428 -212 598 -376 208 -202 365 -424 517 -731 432 -877 529 -1906
236 -2518 -82 -171 -186 -287 -258 -287 -30 0 -33 3 -33 28 0 15 16 75 35 133
67 198 121 424 161 679 26 161 26 547 1 710 -41 269 -110 556 -177 740 -120
329 -334 622 -655 898 -217 186 -456 325 -695 402 -179 57 -225 91 -213 155 8
39 116 145 186 180 48 24 59 26 137 22 62 -4 106 -14 160 -35z m-2130 -1399
l115 -55 -95 -24 c-133 -34 -211 -75 -285 -149 -73 -73 -118 -158 -141 -265
-36 -171 22 -318 232 -591 105 -136 214 -242 238 -233 19 7 33 48 40 112 17
168 219 335 469 389 49 10 107 14 178 11 97 -4 113 -8 183 -41 106 -50 215
-128 301 -214 78 -77 105 -125 88 -152 -17 -27 -133 -25 -298 4 -194 33 -271
33 -355 -3 -199 -85 -455 -340 -517 -514 -35 -99 -32 -455 6 -633 24 -112 18
-129 -59 -167 -67 -33 -339 -125 -396 -134 -39 -6 -42 -4 -76 37 -37 46 -67
100 -168 311 -38 79 -77 145 -106 177 -78 87 -218 135 -389 135 -122 0 -190
-23 -262 -89 -63 -56 -98 -128 -128 -263 -34 -155 -73 -262 -95 -262 -14 0
-25 25 -70 170 -57 184 -70 297 -46 415 21 107 45 169 103 257 79 121 206 212
333 239 94 20 181 7 331 -51 73 -28 155 -54 180 -57 41 -5 48 -3 59 17 27 50
-17 167 -125 334 -74 116 -131 230 -150 303 -20 78 -19 234 5 367 23 135 71
238 162 346 144 170 325 287 503 325 81 17 101 12 235 -52z m4247 -173 c46
-28 67 -63 59 -103 -3 -18 -32 -78 -63 -132 -110 -193 -113 -212 -88 -649 25
-447 8 -623 -80 -812 -64 -139 -131 -212 -179 -194 -25 9 -70 -11 -80 -36 -9
-25 0 -28 34 -14 36 15 45 10 36 -23 -14 -58 -85 -100 -132 -78 -48 21 -22
127 52 218 44 54 83 75 123 67 42 -9 61 9 61 58 0 28 -7 45 -24 61 -35 32 -44
101 -56 402 -13 354 -32 543 -61 596 -6 11 -14 18 -17 14 -4 -4 -7 -223 -7
-488 0 -440 -2 -485 -18 -521 -11 -26 -21 -36 -27 -30 -20 20 -32 288 -34 709
-1 337 2 442 13 485 30 120 137 295 241 394 96 91 180 117 247 76z m-815
-2502 c51 -15 121 -77 147 -131 27 -56 28 -135 1 -187 -61 -120 -244 -148
-365 -56 -91 70 -110 221 -39 306 55 64 168 95 256 68z m-3859 -65 c16 -9 6
-43 -19 -62 -40 -32 -137 -74 -264 -116 -225 -74 -362 -154 -688 -404 -114
-87 -228 -172 -254 -190 -132 -89 -472 -161 -556 -117 -18 9 -38 28 -44 42
-10 20 -8 29 9 52 24 31 61 46 160 61 86 13 188 46 337 110 154 66 232 116
280 178 119 153 468 357 727 424 130 34 276 44 312 22z m3837 -582 c92 -48
298 -288 387 -452 137 -250 198 -526 253 -1139 11 -129 22 -242 24 -250 6 -25
-4 507 -15 755 -14 336 -24 376 -174 675 -86 172 -135 286 -135 315 0 31 40
13 97 -45 154 -155 323 -451 376 -659 21 -83 22 -105 22 -566 0 -596 -5 -640
-108 -975 -93 -306 -159 -753 -144 -986 8 -117 33 -182 115 -303 72 -106 94
-161 85 -218 -12 -81 -60 -132 -145 -158 -144 -42 -276 18 -377 171 -66 101
-105 212 -150 426 -20 97 -39 179 -41 182 -7 6 -112 -228 -151 -335 -85 -232
-125 -547 -89 -691 24 -94 130 -175 270 -204 74 -15 123 -10 197 21 54 23 88
19 126 -15 42 -36 57 -85 57 -182 0 -129 -29 -180 -136 -244 -101 -60 -448
-214 -483 -214 -45 0 -163 27 -250 56 -193 67 -304 147 -388 281 -92 149 -132
334 -82 384 28 28 38 16 50 -65 10 -75 17 -92 48 -120 39 -35 46 -10 33 106
-12 105 -4 206 19 251 18 32 30 6 56 -115 29 -139 76 -244 127 -283 20 -15 39
-25 42 -22 3 2 -4 36 -15 73 -11 38 -25 105 -32 149 -13 92 -27 347 -18 337 3
-4 16 -60 28 -125 55 -300 137 -450 288 -530 82 -43 156 -63 305 -82 165 -22
175 -18 50 21 -145 44 -222 76 -283 115 -102 65 -180 181 -235 349 -26 78 -28
97 -28 240 1 141 3 166 31 271 52 197 156 463 298 764 224 472 382 875 434
1105 57 252 55 365 -15 850 -70 489 -124 606 -446 967 l-130 145 103 -4 c84
-3 113 -9 149 -27z m-7666 -293 c21 -11 75 -47 120 -81 89 -68 192 -125 273
-151 61 -20 103 -50 103 -75 0 -33 -33 -62 -188 -165 -86 -57 -211 -141 -277
-186 -221 -153 -364 -201 -595 -203 -162 -1 -173 4 -570 255 -163 103 -268
158 -301 158 -30 -1 -130 -54 -274 -147 -60 -39 -121 -74 -134 -78 -24 -7 -24
-6 -18 43 7 63 21 90 90 173 66 80 200 189 300 244 l72 40 110 -1 c156 -2 440
-58 568 -113 27 -12 63 -21 80 -21 45 0 116 45 237 149 215 186 290 216 404
159z m6136 -1133 c37 -19 66 -61 81 -117 18 -68 -1 -128 -58 -177 -46 -41
-100 -71 -127 -71 -9 0 -45 27 -80 59 -45 42 -75 62 -102 67 -80 15 -521 -22
-669 -56 -53 -13 -126 -12 -145 0 -13 9 -10 14 15 35 54 45 283 107 493 134
213 28 246 33 285 47 23 8 59 26 79 40 75 52 171 69 228 39z m-2116 -64 c10
-9 33 -45 49 -81 l30 -65 14 45 c18 63 55 84 148 84 185 2 296 -103 203 -191
-51 -48 -115 -76 -178 -77 -48 0 -62 4 -109 37 -29 20 -64 37 -77 37 -21 0
-23 -4 -18 -29 5 -24 1 -32 -28 -53 -18 -14 -58 -38 -88 -54 -130 -68 -264
-248 -265 -358 0 -77 22 -67 74 34 55 106 127 180 216 222 89 41 158 43 191 5
13 -15 26 -47 30 -74 7 -50 19 -73 37 -73 6 0 41 33 78 73 l68 72 37 -20 c48
-26 107 -94 173 -202 100 -162 124 -198 128 -186 7 19 -38 110 -127 263 -90
154 -120 231 -99 256 26 32 104 -11 249 -139 47 -41 87 -74 89 -72 1 2 -9 19
-23 38 -31 40 -34 82 -7 97 28 15 119 12 177 -5 108 -32 207 -133 282 -287 62
-129 85 -216 80 -303 -7 -103 -42 -170 -137 -266 -119 -119 -264 -179 -437
-179 -147 0 -227 40 -314 158 -120 161 -198 360 -207 530 -3 56 -9 102 -13
102 -4 0 -18 -24 -31 -52 -22 -50 -23 -65 -24 -278 -1 -184 -5 -249 -24 -355
-32 -188 -31 -269 3 -335 30 -57 29 -84 -6 -155 -41 -83 -61 -99 -136 -119
-71 -18 -71 -18 -115 3 -31 15 -57 39 -84 79 -93 136 -91 145 55 296 66 66
124 130 129 141 6 11 26 109 44 218 32 195 33 224 3 234 -5 2 -47 -19 -93 -46
-97 -57 -159 -70 -249 -52 -169 34 -283 146 -341 335 -47 154 -16 279 131 528
89 150 158 198 330 228 110 20 152 18 182 -9z"/>
<path d="M2745 11656 c-468 -81 -677 -144 -715 -216 -15 -27 -13 -30 18 -30
32 0 74 13 245 74 180 64 302 94 452 111 72 7 144 19 162 25 47 17 78 72 39
69 -6 0 -96 -15 -201 -33z"/>
<path d="M2444 11251 c-42 -11 -120 -49 -134 -67 -19 -22 85 -18 138 6 52 24
94 55 85 64 -8 8 -49 6 -89 -3z"/>
<path d="M6738 7587 c-80 -111 -91 -587 -14 -587 8 0 16 6 19 14 17 43 50 517
40 569 -6 33 -22 34 -45 4z"/>
<path d="M6484 7274 c-9 -37 2 -178 20 -246 18 -68 74 -188 87 -188 15 0 10
111 -11 232 -31 183 -77 279 -96 202z"/>
<path d="M10667 8673 c-15 -14 -6 -31 21 -42 35 -15 144 -10 149 5 8 24 -149
58 -170 37z"/>
<path d="M10806 8196 c-7 -29 3 -86 15 -86 22 0 24 100 3 107 -7 2 -14 -7 -18
-21z"/>
<path d="M10841 8021 c-19 -35 -34 -190 -28 -291 9 -140 22 -163 52 -88 48
121 26 472 -24 379z"/>
</g>
</svg>
