<?xml version="1.0" encoding="UTF-8" standalone="no"?>
<svg
   width="24"
   height="24"
   viewBox="0 0 24 24"
   version="1.1"
   id="svg4"
   sodipodi:docname="bookmark-add.svg"
   inkscape:version="1.2.2 (732a01da63, 2022-12-09)"
   xmlns:inkscape="http://www.inkscape.org/namespaces/inkscape"
   xmlns:sodipodi="http://sodipodi.sourceforge.net/DTD/sodipodi-0.dtd"
   xmlns="http://www.w3.org/2000/svg"
   xmlns:svg="http://www.w3.org/2000/svg">
  <defs
     id="defs8" />
  <sodipodi:namedview
     id="namedview6"
     pagecolor="#ffffff"
     bordercolor="#000000"
     borderopacity="0.25"
     inkscape:showpageshadow="2"
     inkscape:pageopacity="0.0"
     inkscape:pagecheckerboard="0"
     inkscape:deskcolor="#d1d1d1"
     showgrid="false"
     inkscape:zoom="36.541667"
     inkscape:cx="11.904219"
     inkscape:cy="12.013683"
     inkscape:window-width="1920"
     inkscape:window-height="1057"
     inkscape:window-x="-8"
     inkscape:window-y="-8"
     inkscape:window-maximized="1"
     inkscape:current-layer="svg4" />
  <path
     fill-rule="evenodd"
     d="M17,19.381966 L17,17 L19,17 L19,22.618034 L12,19.118034 L5,22.618034 L5,4 C5,2.8954305 5.8954305,2 7,2 L17,2 C18.1045695,2 19,2.8954305 19,4 L19,5 L17,5 L17,4 L7,4 L7,19.381966 L12,16.881966 L17,19.381966 Z M18,10 L18,8 L20,8 L20,10 L22,10 L22,12 L20,12 L20,14 L18,14 L18,12 L16,12 L16,10 L18,10 Z"
     id="path2"
     style="fill:#ffffff" />
</svg>
