<?xml version="1.0" encoding="UTF-8" standalone="no"?>
<svg
   width="22"
   height="22"
   viewBox="0 0 22 22"
   fill="none"
   version="1.1"
   id="svg4"
   sodipodi:docname="close.svg"
   inkscape:version="1.2.2 (732a01da63, 2022-12-09)"
   xmlns:inkscape="http://www.inkscape.org/namespaces/inkscape"
   xmlns:sodipodi="http://sodipodi.sourceforge.net/DTD/sodipodi-0.dtd"
   xmlns="http://www.w3.org/2000/svg"
   xmlns:svg="http://www.w3.org/2000/svg">
  <defs
     id="defs8" />
  <sodipodi:namedview
     id="namedview6"
     pagecolor="#ffffff"
     bordercolor="#000000"
     borderopacity="0.25"
     inkscape:showpageshadow="2"
     inkscape:pageopacity="0.0"
     inkscape:pagecheckerboard="0"
     inkscape:deskcolor="#d1d1d1"
     showgrid="false"
     inkscape:zoom="39.863636"
     inkscape:cx="8.8928164"
     inkscape:cy="11.012543"
     inkscape:window-width="1920"
     inkscape:window-height="1057"
     inkscape:window-x="-8"
     inkscape:window-y="-8"
     inkscape:window-maximized="1"
     inkscape:current-layer="svg4" />
  <path
     d="M20.71 19.2887C20.8037 19.3817 20.8781 19.4923 20.9289 19.6141C20.9797 19.736 21.0058 19.8667 21.0058 19.9987C21.0058 20.1307 20.9797 20.2614 20.9289 20.3833C20.8781 20.5052 20.8037 20.6158 20.71 20.7087C20.617 20.8024 20.5064 20.8768 20.3846 20.9276C20.2627 20.9784 20.132 21.0045 20 21.0045C19.868 21.0045 19.7373 20.9784 19.6154 20.9276C19.4936 20.8768 19.383 20.8024 19.29 20.7087L11 12.4087L2.71 20.7087C2.61704 20.8024 2.50644 20.8768 2.38458 20.9276C2.26272 20.9784 2.13201 21.0045 2 21.0045C1.86799 21.0045 1.73728 20.9784 1.61542 20.9276C1.49356 20.8768 1.38296 20.8024 1.29 20.7087C1.19627 20.6158 1.12188 20.5052 1.07111 20.3833C1.02034 20.2614 0.994202 20.1307 0.994202 19.9987C0.994202 19.8667 1.02034 19.736 1.07111 19.6141C1.12188 19.4923 1.19627 19.3817 1.29 19.2887L9.59 10.9987L1.29 2.70872C1.1017 2.52042 0.995908 2.26502 0.995908 1.99872C0.995908 1.86686 1.02188 1.73629 1.07234 1.61447C1.1228 1.49265 1.19676 1.38196 1.29 1.28872C1.38324 1.19548 1.49393 1.12152 1.61575 1.07106C1.73757 1.0206 1.86814 0.994629 2 0.994629C2.2663 0.994629 2.5217 1.10042 2.71 1.28872L11 9.58872L19.29 1.28872C19.4783 1.10042 19.7337 0.994629 20 0.994629C20.2663 0.994629 20.5217 1.10042 20.71 1.28872C20.8983 1.47702 21.0041 1.73242 21.0041 1.99872C21.0041 2.26502 20.8983 2.52042 20.71 2.70872L12.41 10.9987L20.71 19.2887Z"
     fill="#231F20"
     id="path2"
     style="fill:#ffffff;fill-opacity:1" />
</svg>
