<?xml version="1.0" encoding="UTF-8" standalone="no"?>
<svg
   width="24"
   height="24"
   fill="none"
   viewBox="0 0 24 24"
   version="1.1"
   id="svg6"
   sodipodi:docname="document-page-number.svg"
   inkscape:version="1.2.2 (732a01da63, 2022-12-09)"
   xmlns:inkscape="http://www.inkscape.org/namespaces/inkscape"
   xmlns:sodipodi="http://sodipodi.sourceforge.net/DTD/sodipodi-0.dtd"
   xmlns="http://www.w3.org/2000/svg"
   xmlns:svg="http://www.w3.org/2000/svg">
  <defs
     id="defs10">
    <filter
       style="color-interpolation-filters:sRGB;"
       inkscape:label="Invert"
       id="filter307"
       x="0"
       y="0"
       width="1"
       height="1">
      <feColorMatrix
         values="1 0 0 0 0 0 1 0 0 0 0 0 1 0 0 -0.21 -0.72 -0.07 2 0 "
         result="color2"
         id="feColorMatrix305" />
    </filter>
    <filter
       style="color-interpolation-filters:sRGB;"
       inkscape:label="Invert"
       id="filter311"
       x="0"
       y="0"
       width="1"
       height="1">
      <feColorMatrix
         values="1 0 0 0 0 0 1 0 0 0 0 0 1 0 0 -0.21 -0.72 -0.07 2 0 "
         result="color2"
         id="feColorMatrix309" />
    </filter>
  </defs>
  <sodipodi:namedview
     id="namedview8"
     pagecolor="#ffffff"
     bordercolor="#000000"
     borderopacity="0.25"
     inkscape:showpageshadow="2"
     inkscape:pageopacity="0.0"
     inkscape:pagecheckerboard="0"
     inkscape:deskcolor="#d1d1d1"
     showgrid="false"
     inkscape:zoom="36.541667"
     inkscape:cx="11.972634"
     inkscape:cy="11.986317"
     inkscape:window-width="1920"
     inkscape:window-height="1057"
     inkscape:window-x="-8"
     inkscape:window-y="-8"
     inkscape:window-maximized="1"
     inkscape:current-layer="svg6" />
  <path
     d="m 17.744,1.996 a 2.25,2.25 0 0 1 2.245,2.096 l 0.005,0.154 V 19.744 A 2.25,2.25 0 0 1 17.9,21.99 l -0.155,0.005 H 6.245 A 2.25,2.25 0 0 1 4,19.898 L 3.995,19.744 V 4.246 A 2.25,2.25 0 0 1 6.09,2.001 L 6.244,1.996 Z m 0,1.5 H 6.244 A 0.75,0.75 0 0 0 5.501,4.144 L 5.495,4.246 v 15.498 c 0,0.38 0.282,0.694 0.648,0.743 l 0.102,0.007 h 11.5 a 0.75,0.75 0 0 0 0.743,-0.648 l 0.006,-0.102 V 4.246 A 0.75,0.75 0 0 0 17.846,3.503 Z"
     fill="#212121"
     id="path2"
     style="fill:#ffffff;filter:url(#filter311)"
     transform="matrix(1.2,0,0,1.2,-2.3989,-2.3991)" />
  <path
     d="m 13.019,16.02 a 0.75,0.75 0 0 1 -0.624,-0.859 l 0.105,-0.66 h -1.482 l -0.141,0.895 A 0.75025812,0.75025812 0 1 1 9.395,15.161 L 9.5,14.501 H 8.75 a 0.75,0.75 0 0 1 0,-1.5 h 0.987 l 0.238,-1.5 H 9.25 a 0.75,0.75 0 0 1 0,-1.5 h 0.962 l 0.2,-1.26 a 0.75,0.75 0 1 1 1.481,0.235 L 11.731,10 h 1.481 l 0.2,-1.259 a 0.75,0.75 0 1 1 1.481,0.235 L 14.731,10 h 0.519 a 0.75,0.75 0 0 1 0,1.5 H 14.493 L 14.256,13 h 0.494 a 0.75,0.75 0 0 1 0,1.5 h -0.732 l -0.141,0.896 a 0.75,0.75 0 0 1 -0.858,0.623 z M 11.493,11.5 11.256,13 h 1.481 l 0.238,-1.5 z"
     fill="#212121"
     id="path4"
     style="fill:#ffffff;filter:url(#filter307)"
     transform="matrix(1.2,0,0,1.2,-2.3989,-2.3991)" />
</svg>
