<?xml version="1.0" encoding="UTF-8" standalone="no"?>
<svg
   viewBox="0 0 32 32"
   version="1.1"
   id="svg17"
   sodipodi:docname="finger-index.svg"
   inkscape:version="1.2.2 (732a01da63, 2022-12-09)"
   xmlns:inkscape="http://www.inkscape.org/namespaces/inkscape"
   xmlns:sodipodi="http://sodipodi.sourceforge.net/DTD/sodipodi-0.dtd"
   xmlns="http://www.w3.org/2000/svg"
   xmlns:svg="http://www.w3.org/2000/svg">
  <sodipodi:namedview
     id="namedview19"
     pagecolor="#ffffff"
     bordercolor="#000000"
     borderopacity="0.25"
     inkscape:showpageshadow="2"
     inkscape:pageopacity="0.0"
     inkscape:pagecheckerboard="0"
     inkscape:deskcolor="#d1d1d1"
     showgrid="false"
     inkscape:zoom="27.40625"
     inkscape:cx="12.898518"
     inkscape:cy="16.018244"
     inkscape:window-width="1920"
     inkscape:window-height="1057"
     inkscape:window-x="-8"
     inkscape:window-y="-8"
     inkscape:window-maximized="1"
     inkscape:current-layer="svg17" />
  <defs
     id="defs4">
    <style
       id="style2">.cls-1,.cls-2,.cls-3{fill:none;}.cls-2,.cls-3{stroke:#000;stroke-linejoin:round;}.cls-3{stroke-linecap:round;}</style>
  </defs>
  <title
     id="title6">finger-index</title>
  <g
     id="Layer_2"
     data-name="Layer 2">
    <g
       id="icons">
      <g
         id="finger-index">
        <polyline
           class="cls-2"
           points="26.5 31.99 26.5 28.49 10.5 28.49 10.5 31.99"
           id="polyline10"
           style="stroke:#ffffff;stroke-opacity:1" />
        <path
           class="cls-3"
           d="M26.48,15.23s-2-2.39-3.22-2.59l-4.93-1A20.89,20.89,0,0,0,15.5,12V2.45A2.38,2.38,0,0,0,13,.54a2.41,2.41,0,0,0-2.5,1.91V16.83c.5,1.18-1,.94-1.45.57s-2.84-2.6-4-2.86c-1-.22-1.47.27-1.7,1.22s.73,2.53,1.09,2.89,6.79,6.88,7.05,7.76A20.24,20.24,0,0,1,12,28.49H25.5v-1.6A21.57,21.57,0,0,1,26,23.2l.6-3.78A10.94,10.94,0,0,0,26.48,15.23Z"
           id="path12"
           style="stroke:#ffffff;stroke-opacity:1" />
      </g>
    </g>
  </g>
</svg>
