<?xml version="1.0" encoding="UTF-8" standalone="no"?>
<svg
   width="32"
   height="32"
   viewBox="0 0 32 32"
   version="1.1"
   id="svg4"
   sodipodi:docname="google-scholar.svg"
   inkscape:version="1.2.2 (732a01da63, 2022-12-09)"
   xmlns:inkscape="http://www.inkscape.org/namespaces/inkscape"
   xmlns:sodipodi="http://sodipodi.sourceforge.net/DTD/sodipodi-0.dtd"
   xmlns="http://www.w3.org/2000/svg"
   xmlns:svg="http://www.w3.org/2000/svg">
  <defs
     id="defs8" />
  <sodipodi:namedview
     id="namedview6"
     pagecolor="#ffffff"
     bordercolor="#000000"
     borderopacity="0.25"
     inkscape:showpageshadow="2"
     inkscape:pageopacity="0.0"
     inkscape:pagecheckerboard="0"
     inkscape:deskcolor="#d1d1d1"
     showgrid="false"
     inkscape:zoom="27.40625"
     inkscape:cx="11.730901"
     inkscape:cy="16.018244"
     inkscape:window-width="1920"
     inkscape:window-height="1057"
     inkscape:window-x="-8"
     inkscape:window-y="-8"
     inkscape:window-maximized="1"
     inkscape:current-layer="svg4" />
  <path
     d="M14.573 2.729c-0.729 0.484-4.292 2.849-7.917 5.255s-6.589 4.396-6.589 4.422c0 0.026 0.182 0.146 0.406 0.266 0.224 0.13 3.797 2.109 7.953 4.411l7.542 4.193 0.193-0.099c0.109-0.052 2.891-1.641 6.188-3.521l5.99-3.427 0.036 10.599h3.557v-12.401l-4.615-3.094c-6.219-4.167-11.188-7.448-11.307-7.474-0.063-0.010-0.703 0.38-1.438 0.87zM7.141 22.177l0.016 2.672 8.828 5.292 8.891-5.339v-2.641c0-1.458-0.016-2.646-0.031-2.646-0.021 0-1.76 1.042-3.87 2.323l-4.406 2.661-0.578 0.339-1.755-1.052c-1.464-0.875-2.927-1.755-4.385-2.641l-2.672-1.615c-0.031-0.010-0.042 1.177-0.036 2.646z"
     id="path2"
     style="fill:#ffffff" />
</svg>
