<?xml version="1.0" standalone="no"?>
<!DOCTYPE svg PUBLIC "-//W3C//DTD SVG 20010904//EN"
 "http://www.w3.org/TR/2001/REC-SVG-20010904/DTD/svg10.dtd">
<svg version="1.0" xmlns="http://www.w3.org/2000/svg"
 width="884.000000pt" height="1280.000000pt" viewBox="0 0 884.000000 1280.000000"
 preserveAspectRatio="xMidYMid meet">
<metadata>
Created by potrace 1.15, written by Peter Selinger 2001-2017
</metadata>
<g transform="translate(0.000000,1280.000000) scale(0.100000,-0.100000)"
fill="#000000" stroke="none">
<path d="M423 12789 c-18 -5 -48 -24 -67 -43 -30 -27 -36 -40 -36 -73 0 -46
25 -84 73 -111 32 -17 30 -17 -128 -22 -146 -5 -163 -7 -198 -28 -77 -48 -87
-116 -28 -173 50 -47 102 -59 264 -59 l122 -1 -37 -20 c-70 -36 -88 -114 -41
-170 35 -41 79 -59 147 -59 l54 0 -36 -71 c-35 -67 -37 -77 -37 -163 0 -80 4
-97 29 -146 32 -62 87 -124 130 -147 l29 -15 -7 -432 c-7 -483 -33 -1453 -78
-2956 -17 -573 -17 -2907 0 -3480 41 -1359 70 -2443 78 -2905 l6 -370 -48 -35
c-133 -96 -182 -287 -110 -431 15 -30 36 -63 47 -75 10 -11 19 -23 19 -27 0
-4 -29 -7 -65 -7 -79 0 -122 -16 -158 -59 -47 -57 -32 -125 39 -167 l39 -24
-122 0 c-163 0 -218 -12 -266 -60 -57 -58 -45 -124 30 -172 35 -21 52 -23 198
-28 158 -5 160 -5 128 -22 -48 -27 -73 -65 -73 -111 0 -32 6 -46 35 -73 20
-18 52 -38 73 -44 52 -14 7932 -14 7984 0 21 6 53 26 73 44 29 27 35 41 35 73
0 46 -25 84 -73 111 -32 17 -30 17 128 22 146 5 163 7 198 28 94 59 87 150
-16 204 -36 19 -62 23 -190 26 l-149 4 38 23 c69 41 84 110 37 166 -36 43 -79
59 -158 59 -36 0 -65 3 -65 7 0 4 9 16 19 27 11 12 32 45 47 75 72 144 23 335
-110 431 l-48 35 6 375 c8 446 33 1382 78 2905 17 577 17 2890 0 3470 -51
1731 -71 2489 -78 2956 l-7 437 30 15 c43 23 101 91 132 156 22 47 26 70 26
142 0 80 -3 92 -37 158 l-36 71 54 0 c68 0 112 18 147 59 47 56 28 134 -40
170 l-37 19 149 4 c130 3 156 7 192 26 103 54 110 145 16 204 -35 21 -52 23
-198 28 -158 5 -160 5 -128 22 48 27 73 65 73 111 0 32 -6 46 -35 73 -20 18
-52 38 -73 44 -48 13 -7942 12 -7989 -1z m1267 -2419 c6 -1637 6 -1656 27
-1745 126 -540 537 -1053 1223 -1527 119 -82 332 -213 453 -278 l92 -50 -97 0
c-95 0 -98 -1 -115 -27 -24 -37 -30 -148 -10 -195 l16 -37 -42 -3 c-59 -4 -80
-45 -74 -146 5 -88 22 -112 78 -112 l38 0 -16 -37 c-20 -48 -14 -159 10 -196
17 -26 20 -27 115 -27 l97 0 -106 -59 c-309 -172 -606 -377 -843 -581 -124
-107 -339 -327 -426 -435 -195 -244 -329 -510 -393 -778 -21 -92 -21 -93 -27
-1727 l-5 -1635 -307 -3 c-170 -1 -308 0 -308 3 0 3 16 25 35 50 112 148 73
380 -82 488 l-45 32 6 335 c8 397 19 846 46 1790 35 1254 40 1477 50 2188 12
961 -1 1929 -50 3592 -44 1501 -58 2240 -42 2240 24 0 122 104 149 158 25 50
28 68 28 152 0 88 -3 100 -32 158 -18 34 -33 65 -33 67 0 3 132 4 293 3 l292
-3 5 -1655z m6050 1655 c0 -2 -15 -33 -32 -67 -30 -58 -33 -70 -33 -158 0 -84
3 -102 28 -152 27 -54 125 -158 149 -158 16 0 4 -644 -47 -2415 -30 -1046 -36
-1314 -45 -2007 -6 -438 -6 -978 0 -1415 10 -710 14 -894 50 -2183 27 -964 38
-1400 46 -1791 l7 -336 -36 -22 c-161 -99 -207 -345 -92 -495 19 -26 35 -48
35 -51 0 -3 -138 -4 -307 -3 l-308 3 -5 1635 c-6 1634 -6 1635 -27 1727 -65
274 -202 543 -409 803 -96 121 -378 399 -519 512 -220 177 -466 341 -715 480
l-105 58 87 0 c84 0 88 1 105 26 23 36 29 137 10 192 l-15 42 39 0 c52 0 72
31 77 119 4 94 -17 135 -75 139 l-42 3 15 34 c20 48 18 142 -4 185 -17 35 -17
35 -99 40 l-82 5 131 75 c588 335 1076 764 1346 1183 118 181 209 394 255 592
21 89 21 105 24 1735 2 905 5 1651 8 1658 3 9 72 12 295 12 159 0 290 -2 290
-5z"/>
</g>
</svg>
