<?xml version="1.0" encoding="UTF-8" standalone="no"?>
<svg
   width="24"
   height="24"
   viewBox="0 0 24 24"
   version="1.1"
   id="svg6"
   sodipodi:docname="link.svg"
   inkscape:version="1.2.2 (732a01da63, 2022-12-09)"
   xmlns:inkscape="http://www.inkscape.org/namespaces/inkscape"
   xmlns:sodipodi="http://sodipodi.sourceforge.net/DTD/sodipodi-0.dtd"
   xmlns="http://www.w3.org/2000/svg"
   xmlns:svg="http://www.w3.org/2000/svg">
  <defs
     id="defs10" />
  <sodipodi:namedview
     id="namedview8"
     pagecolor="#ffffff"
     bordercolor="#000000"
     borderopacity="0.25"
     inkscape:showpageshadow="2"
     inkscape:pageopacity="0.0"
     inkscape:pagecheckerboard="0"
     inkscape:deskcolor="#d1d1d1"
     showgrid="false"
     inkscape:zoom="36.541667"
     inkscape:cx="11.904219"
     inkscape:cy="12.013683"
     inkscape:window-width="1920"
     inkscape:window-height="1057"
     inkscape:window-x="-8"
     inkscape:window-y="-8"
     inkscape:window-maximized="1"
     inkscape:current-layer="svg6" />
  <path
     d="M8.465,11.293c1.133-1.133,3.109-1.133,4.242,0L13.414,12l1.414-1.414l-0.707-0.707c-0.943-0.944-2.199-1.465-3.535-1.465 S7.994,8.935,7.051,9.879L4.929,12c-1.948,1.949-1.948,5.122,0,7.071c0.975,0.975,2.255,1.462,3.535,1.462 c1.281,0,2.562-0.487,3.536-1.462l0.707-0.707l-1.414-1.414l-0.707,0.707c-1.17,1.167-3.073,1.169-4.243,0 c-1.169-1.17-1.169-3.073,0-4.243L8.465,11.293z"
     id="path2"
     style="fill:#ffffff" />
  <path
     d="M12,4.929l-0.707,0.707l1.414,1.414l0.707-0.707c1.169-1.167,3.072-1.169,4.243,0c1.169,1.17,1.169,3.073,0,4.243 l-2.122,2.121c-1.133,1.133-3.109,1.133-4.242,0L10.586,12l-1.414,1.414l0.707,0.707c0.943,0.944,2.199,1.465,3.535,1.465 s2.592-0.521,3.535-1.465L19.071,12c1.948-1.949,1.948-5.122,0-7.071C17.121,2.979,13.948,2.98,12,4.929z"
     id="path4"
     style="fill:#ffffff" />
</svg>
