<?xml version="1.0" encoding="UTF-8" standalone="no"?>
<svg
   width="24"
   height="24"
   stroke-width="1.5"
   viewBox="0 0 24 24"
   fill="none"
   version="1.1"
   id="svg12"
   sodipodi:docname="load-action-floppy.svg"
   inkscape:version="1.2.2 (732a01da63, 2022-12-09)"
   xmlns:inkscape="http://www.inkscape.org/namespaces/inkscape"
   xmlns:sodipodi="http://sodipodi.sourceforge.net/DTD/sodipodi-0.dtd"
   xmlns="http://www.w3.org/2000/svg"
   xmlns:svg="http://www.w3.org/2000/svg">
  <defs
     id="defs16" />
  <sodipodi:namedview
     id="namedview14"
     pagecolor="#ffffff"
     bordercolor="#000000"
     borderopacity="0.25"
     inkscape:showpageshadow="2"
     inkscape:pageopacity="0.0"
     inkscape:pagecheckerboard="0"
     inkscape:deskcolor="#d1d1d1"
     showgrid="false"
     inkscape:zoom="36.541667"
     inkscape:cx="9.6738883"
     inkscape:cy="12.013683"
     inkscape:window-width="1920"
     inkscape:window-height="1057"
     inkscape:window-x="-8"
     inkscape:window-y="-8"
     inkscape:window-maximized="1"
     inkscape:current-layer="svg12" />
  <path
     d="M3 6.5V5C3 3.89543 3.89543 3 5 3H16.1716C16.702 3 17.2107 3.21071 17.5858 3.58579L20.4142 6.41421C20.7893 6.78929 21 7.29799 21 7.82843V19C21 20.1046 20.1046 21 19 21H5C3.89543 21 3 20.1046 3 19V17.5"
     stroke="currentColor"
     stroke-linecap="round"
     stroke-linejoin="round"
     id="path2"
     style="stroke:#ffffff;stroke-opacity:1" />
  <path
     d="M8 3H16V8.4C16 8.73137 15.7314 9 15.4 9H8.6C8.26863 9 8 8.73137 8 8.4V3Z"
     stroke="currentColor"
     stroke-linecap="round"
     stroke-linejoin="round"
     id="path4"
     style="stroke:#ffffff;stroke-opacity:1" />
  <path
     d="M18 21V13.6C18 13.2686 17.7314 13 17.4 13H15"
     stroke="currentColor"
     stroke-linecap="round"
     stroke-linejoin="round"
     id="path6"
     style="stroke:#ffffff;stroke-opacity:1" />
  <path
     d="M6 21V17.5"
     stroke="currentColor"
     stroke-linecap="round"
     stroke-linejoin="round"
     id="path8"
     style="stroke:#ffffff;stroke-opacity:1" />
  <path
     d="M12 12H1M1 12L4 9M1 12L4 15"
     stroke="currentColor"
     stroke-linecap="round"
     stroke-linejoin="round"
     id="path10"
     style="stroke:#ffffff;stroke-opacity:1" />
</svg>
