<?xml version="1.0" encoding="UTF-8" standalone="no"?>
<svg
   width="24"
   height="24"
   viewBox="0 0 24 24"
   fill="none"
   version="1.1"
   id="svg4"
   sodipodi:docname="lock - Copy.svg"
   inkscape:version="1.2.2 (732a01da63, 2022-12-09)"
   xmlns:inkscape="http://www.inkscape.org/namespaces/inkscape"
   xmlns:sodipodi="http://sodipodi.sourceforge.net/DTD/sodipodi-0.dtd"
   xmlns:xlink="http://www.w3.org/1999/xlink"
   xmlns="http://www.w3.org/2000/svg"
   xmlns:svg="http://www.w3.org/2000/svg">
  <defs
     id="defs8">
    <linearGradient
       inkscape:collect="always"
       id="linearGradient814">
      <stop
         style="stop-color:#00b2ff;stop-opacity:1;"
         offset="0"
         id="stop810" />
      <stop
         style="stop-color:#ff8400;stop-opacity:1;"
         offset="1"
         id="stop812" />
    </linearGradient>
    <linearGradient
       inkscape:collect="always"
       xlink:href="#linearGradient814"
       id="linearGradient816"
       x1="2"
       y1="12"
       x2="22"
       y2="12"
       gradientUnits="userSpaceOnUse" />
  </defs>
  <sodipodi:namedview
     id="namedview6"
     pagecolor="#ffffff"
     bordercolor="#000000"
     borderopacity="0.25"
     inkscape:showpageshadow="2"
     inkscape:pageopacity="0.0"
     inkscape:pagecheckerboard="0"
     inkscape:deskcolor="#d1d1d1"
     showgrid="false"
     inkscape:zoom="36.541667"
     inkscape:cx="11.370581"
     inkscape:cy="12.041049"
     inkscape:window-width="1920"
     inkscape:window-height="1057"
     inkscape:window-x="-8"
     inkscape:window-y="-8"
     inkscape:window-maximized="1"
     inkscape:current-layer="svg4" />
  <path
     d="M19 11V9C19 7.14348 18.2625 5.36301 16.9497 4.05025C15.637 2.7375 13.8565 2 12 2C10.1435 2 8.36301 2.7375 7.05025 4.05025C5.7375 5.36301 5 7.14348 5 9V11C4.20435 11 3.44129 11.3161 2.87868 11.8787C2.31607 12.4413 2 13.2044 2 14V19C2 19.7956 2.31607 20.5587 2.87868 21.1213C3.44129 21.6839 4.20435 22 5 22H19C19.7956 22 20.5587 21.6839 21.1213 21.1213C21.6839 20.5587 22 19.7956 22 19V14C22 13.2044 21.6839 12.4413 21.1213 11.8787C20.5587 11.3161 19.7956 11 19 11ZM17 11H7V9C7 7.67392 7.52678 6.40215 8.46447 5.46447C9.40215 4.52678 10.6739 4 12 4C13.3261 4 14.5979 4.52678 15.5355 5.46447C16.4732 6.40215 17 7.67392 17 9V11Z"
     fill="black"
     id="path2"
     style="fill:url(#linearGradient816);fill-opacity:1" />
</svg>
