<?xml version="1.0" encoding="UTF-8" standalone="no"?>
<svg
   version="1.0"
   width="1182.000000pt"
   height="1280.000000pt"
   viewBox="0 0 1182.000000 1280.000000"
   preserveAspectRatio="xMidYMid meet"
   id="svg18"
   sodipodi:docname="P.svg"
   inkscape:version="1.2.2 (732a01da63, 2022-12-09)"
   xmlns:inkscape="http://www.inkscape.org/namespaces/inkscape"
   xmlns:sodipodi="http://sodipodi.sourceforge.net/DTD/sodipodi-0.dtd"
   xmlns="http://www.w3.org/2000/svg"
   xmlns:svg="http://www.w3.org/2000/svg">
  <defs
     id="defs22" />
  <sodipodi:namedview
     id="namedview20"
     pagecolor="#ffffff"
     bordercolor="#000000"
     borderopacity="0.25"
     inkscape:showpageshadow="2"
     inkscape:pageopacity="0.0"
     inkscape:pagecheckerboard="0"
     inkscape:deskcolor="#d1d1d1"
     inkscape:document-units="pt"
     showgrid="false"
     inkscape:zoom="0.36335897"
     inkscape:cx="257.32129"
     inkscape:cy="886.176"
     inkscape:window-width="1920"
     inkscape:window-height="1057"
     inkscape:window-x="-8"
     inkscape:window-y="-8"
     inkscape:window-maximized="1"
     inkscape:current-layer="layer2" />
  <metadata
     id="metadata2">
Created by potrace 1.15, written by Peter Selinger 2001-2017
</metadata>
  <g
     inkscape:groupmode="layer"
     id="layer2"
     inkscape:label="Layer 1"
     style="fill:#ff0000">
    <rect
       style="fill:#ffffff;stroke:#ffffff;stroke-width:3.75;stroke-linecap:round;stroke-linejoin:round;paint-order:stroke fill markers;fill-opacity:1"
       id="rect548"
       width="1078.5861"
       height="1138.4265"
       x="49.623718"
       y="62.759407" />
  </g>
  <g
     transform="translate(0.000000,1280.000000) scale(0.100000,-0.100000)"
     fill="#000000"
     stroke="none"
     id="g16">
    <path
       d="M11075 12459 c-110 -4 -380 -17 -600 -28 -896 -46 -1495 -62 -2377 -62 -701 -1 -779 1 -1058 26 -356 33 -977 40 -3505 40 -1915 0 -2529 -3 -2695 -13 -328 -20 -392 -33 -468 -98 -72 -62 -71 190 -32 -7389 17 -3288 31 -4372 58 -4529 6 -33 12 -41 37 -48 17 -4 136 -12 265 -18 584 -26 682 -31 760 -45 46 -8 91 -21 100 -30 21 -19 25 -19 45 1 24 24 72 32 270 44 301 17 924 29 2410 44 1824 20 2778 33 3600 52 662 14 742 17 1455 54 440 23 1197 55 1630 70 162 5 342 13 399 16 l104 6 -7 1352 c-3 743 -8 2780 -11 4526 -3 1746 -8 3820 -11 4608 l-6 1432 -82 -2 c-44 0 -171 -5 -281 -9z m-6830 -603 c258 -66 509 -187 690 -332 196 -156 337 -230 515 -266 81 -17 121 -19 275 -15 187 5 274 18 530 76 658 149 1413 171 2105 60 368 -58 649 -147 990 -311 372 -178 607 -343 875 -612 257 -258 502 -583 556 -739 26 -75 29 -94 29 -225 0 -202 -2 -205 -145 -216 -175 -14 -388 -183 -481 -381 -17 -38 -40 -107 -50 -153 -22 -104 -14 -157 51 -308 90 -213 158 -299 257 -329 84 -26 247 -30 352 -11 75 15 91 15 103 4 11 -12 11 -21 -1 -56 -8 -22 -36 -143 -61 -268 -48 -230 -73 -328 -118 -444 -181 -469 -568 -980 -1037 -1371 -159 -132 -212 -172 -388 -287 -263 -173 -404 -235 -658 -291 -836 -182 -1770 -184 -2600 -5 -425 91 -769 217 -1069 391 -140 82 -244 135 -299 153 -35 11 -41 11 -54 -6 -15 -20 -15 -9 8 -429 5 -99 14 -452 20 -785 6 -333 15 -690 20 -795 36 -688 130 -995 375 -1223 98 -91 209 -164 460 -300 l210 -114 1075 6 c591 3 1330 9 1642 13 l566 6 36 84 c201 461 446 977 551 1158 35 61 66 127 70 147 10 53 -9 98 -63 149 -65 63 -95 84 -267 187 l-150 91 -2 -62 c-7 -153 -23 -287 -43 -339 -27 -74 -87 -140 -158 -175 -53 -26 -65 -28 -172 -27 -129 1 -195 19 -274 73 -139 96 -211 290 -204 552 3 123 4 127 41 201 21 42 67 111 102 154 242 303 602 331 1115 86 182 -87 479 -317 754 -582 225 -218 337 -354 352 -428 9 -43 -30 -75 -192 -161 -187 -99 -261 -150 -366 -250 -105 -100 -164 -179 -215 -288 -45 -96 -51 -185 -18 -243 50 -85 189 -107 354 -56 158 49 180 38 256 -120 73 -151 110 -201 280 -369 120 -119 147 -152 182 -220 51 -100 73 -182 73 -276 0 -212 -123 -380 -327 -451 -55 -18 -89 -23 -178 -23 -95 0 -116 3 -158 24 -45 22 -77 61 -77 94 0 8 14 45 31 81 78 166 36 329 -126 491 -84 84 -139 118 -226 136 -66 14 -321 6 -374 -12 -25 -9 -61 -35 -96 -72 -73 -76 -102 -84 -369 -98 -246 -14 -3019 -5 -3625 10 -428 11 -1125 38 -1221 47 l-61 5 18 117 c33 207 20 335 -46 469 -40 82 -115 157 -173 173 -59 16 -133 12 -168 -9 -17 -10 -48 -45 -70 -77 -37 -57 -39 -62 -39 -139 1 -64 10 -111 44 -230 27 -94 45 -178 48 -225 5 -71 3 -77 -27 -122 -62 -92 -124 -100 -1125 -138 -291 -11 -712 -27 -935 -35 l-405 -16 -23 28 c-47 59 -175 257 -198 308 -35 77 -54 189 -54 326 0 298 74 448 416 843 249 286 316 380 404 554 91 183 126 323 118 472 -4 65 -12 102 -31 144 -32 70 -110 154 -179 192 -46 25 -63 29 -133 29 -69 0 -89 -4 -147 -32 -130 -61 -188 -141 -229 -316 -86 -365 -100 -416 -138 -492 -52 -104 -121 -176 -198 -206 -115 -44 -321 -25 -311 29 5 28 66 41 198 41 l125 1 -17 248 c-10 136 -19 344 -21 462 -2 213 -2 216 26 295 83 237 275 514 404 582 192 103 504 89 701 -30 107 -63 237 -209 325 -362 61 -106 93 -192 128 -350 57 -258 73 -282 221 -330 107 -35 153 -63 220 -133 95 -100 138 -215 138 -375 0 -164 -50 -348 -132 -484 -59 -99 -102 -121 -249 -130 -104 -6 -156 7 -165 43 -9 37 2 52 43 60 21 3 61 17 88 31 49 24 181 120 205 148 16 19 -112 236 -173 292 -65 60 -156 86 -302 87 l-110 1 0 -40 c-1 -52 -16 -78 -68 -114 -162 -112 -450 -520 -486 -689 -17 -81 -1 -110 96 -166 135 -80 173 -126 173 -213 0 -53 -1 -55 -66 -124 -60 -64 -66 -74 -60 -102 17 -85 145 -139 372 -158 112 -9 127 -8 183 11 131 44 349 199 537 382 140 136 200 211 249 308 150 301 204 852 192 1975 -7 587 -18 945 -42 1356 -14 239 -19 279 -35 279 -18 0 -106 -78 -169 -151 -153 -177 -171 -224 -128 -332 36 -90 43 -152 23 -219 -41 -141 -192 -199 -321 -124 -59 35 -142 129 -155 175 -16 62 3 140 73 300 136 308 367 570 592 672 124 56 120 5 120 1534 0 1249 -6 1489 -40 1730 -32 228 -78 339 -219 529 -32 43 -92 114 -134 158 -365 382 -811 398 -1202 42 -175 -159 -251 -283 -280 -454 -23 -139 7 -322 88 -523 77 -192 160 -293 297 -364 130 -67 220 -95 305 -97 67 -1 81 2 136 32 88 48 187 142 220 208 27 55 27 56 18 177 -14 195 -12 336 6 347 21 14 22 13 71 -20 90 -60 212 -250 240 -374 27 -121 -26 -307 -132 -465 -80 -121 -180 -212 -314 -288 -145 -82 -185 -118 -185 -169 0 -43 9 -58 92 -160 131 -161 207 -391 224 -683 11 -189 -28 -497 -85 -667 -39 -117 -99 -201 -237 -333 -250 -240 -558 -436 -742 -471 -231 -43 -556 196 -722 534 -93 187 -114 359 -59 472 30 63 134 171 205 214 69 42 175 79 225 80 91 0 146 -88 135 -220 -7 -89 -20 -135 -74 -255 -74 -164 -78 -248 -16 -352 78 -129 154 -179 267 -171 179 11 354 197 403 428 28 131 9 346 -45 534 -49 167 -98 273 -244 527 -274 476 -511 1043 -596 1424 -18 81 -40 291 -47 456 -15 348 47 622 215 944 200 385 321 478 761 582 106 25 131 28 320 27 195 0 209 -1 293 -27 110 -34 180 -70 279 -141 131 -94 250 -145 387 -167 94 -14 127 -3 189 66 63 71 166 244 193 323 25 75 42 86 129 85 71 0 142 -25 173 -60 32 -36 42 -129 29 -271 -19 -196 -17 -229 17 -287 34 -60 151 -173 206 -200 51 -25 109 -24 160 0 60 29 176 150 209 218 27 53 28 64 24 145 -6 103 -28 161 -104 278 -75 114 -187 217 -303 279 -63 33 -100 59 -112 80 -23 37 -23 39 -2 61 22 22 110 15 248 -20z m6303 -121 c71 -32 133 -93 165 -163 33 -72 30 -179 -8 -255 -38 -77 -119 -152 -187 -172 -159 -47 -343 30 -449 189 -39 57 -41 64 -36 117 9 101 93 230 179 275 97 51 234 55 336 9z m509 -4843 c6 -4 14 -18 18 -32 7 -30 -74 -597 -111 -779 -106 -512 -295 -855 -580 -1051 -55 -38 -245 -130 -334 -162 -57 -20 -83 -23 -210 -22 l-145 1 -193 56 c-106 31 -234 64 -285 74 -117 21 -411 24 -512 4 -317 -62 -533 -175 -775 -406 -168 -161 -329 -288 -460 -362 -70 -40 -120 -54 -120 -34 0 39 562 627 666 698 217 147 569 252 984 292 343 34 512 78 720 188 304 160 554 388 824 753 155 207 307 456 355 578 35 89 72 155 103 184 32 30 37 32 55 20z m-4508 -2021 c83 -43 151 -152 173 -279 9 -56 8 -82 -6 -159 -18 -99 -14 -143 13 -143 38 0 88 76 141 215 83 215 165 305 276 305 115 0 308 -173 289 -259 -8 -38 -60 -111 -177 -253 -116 -139 -148 -182 -148 -195 0 -7 74 -13 198 -17 403 -14 515 -42 558 -143 26 -60 10 -163 -42 -281 -63 -142 -129 -159 -371 -96 -216 56 -246 63 -272 64 -24 0 -24 0 -5 -21 10 -12 102 -76 204 -144 179 -118 240 -169 240 -203 0 -95 -218 -275 -315 -259 -40 6 -109 49 -259 160 -134 98 -244 167 -268 167 -28 0 -23 -53 19 -187 65 -212 48 -300 -72 -358 -48 -24 -64 -27 -118 -23 -107 9 -169 52 -192 133 -8 27 -19 118 -24 200 -9 147 -20 205 -40 205 -6 0 -86 -73 -179 -162 -201 -194 -296 -256 -389 -258 -65 0 -128 42 -163 110 -63 123 -19 220 202 446 71 74 128 139 125 146 -8 24 -180 13 -282 -17 -123 -37 -182 -48 -230 -41 -62 10 -104 40 -127 93 -18 40 -19 53 -10 99 15 72 55 147 108 204 79 84 80 84 403 90 192 3 286 9 288 16 7 21 -202 106 -379 155 -210 57 -240 91 -182 206 50 102 245 281 324 298 43 9 86 -18 210 -134 131 -122 188 -171 201 -171 15 0 10 30 -26 160 -40 145 -42 173 -15 218 67 110 219 163 319 113z m3917 -71 c115 -29 235 -90 293 -148 28 -28 66 -82 87 -123 63 -126 164 -395 164 -438 0 -18 -65 20 -208 122 -162 116 -271 174 -354 189 -83 14 -130 36 -203 91 -62 46 -89 78 -118 134 -26 49 -21 87 14 128 57 65 180 82 325 45z"
       id="path8" />
    <path
       d="M6879 10770 c-772 -49 -1412 -275 -1764 -624 -148 -146 -249 -300 -342 -515 -126 -295 -143 -547 -143 -2178 l0 -962 168 -104 c307 -192 463 -269 720 -358 407 -140 982 -267 1361 -300 172 -15 530 -6 670 16 480 76 897 278 1346 651 172 143 279 263 400 448 350 534 487 1235 374 1916 -64 386 -202 719 -421 1016 -97 131 -315 351 -450 452 -370 277 -881 486 -1303 532 -139 15 -454 20 -616 10z m-374 -440 c223 -37 594 -170 880 -315 177 -90 254 -140 385 -250 178 -149 278 -205 364 -205 78 1 106 51 106 187 1 103 13 165 41 205 51 71 199 100 297 58 103 -44 156 -136 157 -270 1 -187 -75 -321 -209 -367 -98 -34 -334 -17 -583 44 -43 10 -24 -22 53 -87 259 -221 551 -342 829 -343 106 0 133 3 233 32 63 18 120 30 128 27 26 -10 14 -53 -29 -112 -53 -72 -193 -206 -239 -230 -48 -25 -145 -28 -300 -10 -196 23 -178 30 -162 -61 36 -200 46 -324 53 -633 8 -347 14 -385 61 -410 28 -15 55 -5 116 41 97 74 183 99 277 79 117 -24 167 -90 167 -222 0 -168 -100 -333 -247 -407 -109 -55 -198 -70 -280 -46 -75 21 -136 62 -265 175 l-103 92 -6 126 c-4 70 -7 282 -8 472 -2 551 -18 743 -76 889 -49 127 -177 347 -195 336 -15 -9 -21 -97 -30 -395 -7 -245 -13 -320 -28 -380 -70 -278 -218 -359 -732 -400 -271 -22 -363 -52 -567 -181 -51 -33 -100 -59 -109 -59 -39 0 20 166 94 262 46 61 95 94 152 103 63 10 406 107 515 145 168 59 246 119 330 254 114 183 169 472 111 583 -25 49 3 75 106 102 46 12 89 24 96 26 27 9 -379 523 -558 707 -103 105 -130 124 -130 92 0 -27 20 -54 40 -54 68 0 248 -392 296 -648 31 -162 -1 -350 -88 -512 -113 -211 -310 -373 -752 -619 -201 -112 -323 -195 -362 -248 -83 -112 -75 -214 30 -372 121 -182 253 -249 512 -258 172 -7 224 0 264 34 60 50 130 228 154 392 8 54 19 97 27 102 37 24 175 -38 247 -110 96 -96 145 -216 123 -299 -33 -120 -228 -325 -388 -406 -101 -50 -296 -58 -552 -21 -57 8 -106 14 -107 12 -5 -4 121 -321 156 -390 42 -87 96 -142 152 -158 24 -7 88 -12 143 -12 161 0 236 37 442 217 313 272 392 317 491 282 72 -26 129 -74 149 -125 27 -68 23 -217 -6 -294 -28 -72 -62 -105 -193 -186 -221 -139 -405 -215 -582 -242 -103 -16 -304 -6 -394 20 -187 54 -443 231 -518 358 -17 27 -31 75 -40 135 -8 51 -25 116 -38 143 -22 50 -80 125 -96 125 -4 0 -1 -30 7 -67 16 -75 12 -192 -9 -258 -36 -115 -291 -276 -477 -301 -50 -6 -121 9 -121 27 0 5 35 26 78 48 91 46 121 76 159 156 26 55 28 69 28 180 0 94 -5 138 -23 200 -33 118 -120 285 -217 415 -47 63 -108 160 -136 215 -45 90 -50 109 -56 185 -17 251 124 526 343 670 48 31 111 59 199 88 149 49 185 71 185 111 0 33 -15 48 -95 92 -116 63 -124 78 -135 252 -4 73 -15 157 -24 189 -33 112 -123 180 -313 236 -161 48 -171 60 -98 113 51 36 130 56 275 69 248 22 448 8 539 -36 58 -29 224 -187 276 -263 28 -41 30 -51 30 -130 0 -47 -4 -119 -9 -158 -11 -93 -4 -103 75 -103 103 0 243 76 380 208 86 81 113 131 124 227 22 205 -111 485 -330 693 -132 126 -258 195 -441 243 -77 20 -114 23 -279 23 -160 1 -207 -3 -297 -22 -305 -64 -576 -206 -798 -418 -104 -100 -190 -164 -217 -164 -19 0 -16 48 6 95 60 132 199 285 343 379 232 151 548 262 844 296 90 10 290 5 379 -10z m-1159 -3014 c47 -49 84 -135 84 -195 0 -27 -17 -73 -54 -147 -72 -147 -80 -175 -81 -279 0 -80 4 -97 31 -155 20 -43 59 -96 113 -154 84 -90 105 -124 95 -151 -24 -62 -189 10 -320 140 -136 135 -203 293 -211 500 -8 186 28 303 123 405 52 55 95 79 143 80 28 0 43 -9 77 -44z"
       id="path10" />
    <path
       d="M6205 7190 c-20 -32 30 -198 63 -208 21 -6 14 96 -11 157 -22 55 -39 72 -52 51z"
       id="path12" />
    <path
       d="M6490 4024 c-90 -51 -190 -165 -190 -217 0 -38 77 -117 161 -165 74 -42 102 -41 177 7 80 52 96 83 89 175 -8 100 -24 145 -67 188 -32 32 -44 38 -81 38 -29 0 -60 -9 -89 -26z m78 -148 c59 -30 66 -106 15 -146 -35 -27 -67 -25 -103 8 -86 77 -13 190 88 138z"
       id="path14" />
  </g>
</svg>
