<?xml version="1.0" encoding="UTF-8" standalone="no"?>
<svg
   viewBox="0 0 50 50"
   version="1.1"
   id="svg6"
   sodipodi:docname="question.svg"
   inkscape:version="1.2.2 (732a01da63, 2022-12-09)"
   xmlns:inkscape="http://www.inkscape.org/namespaces/inkscape"
   xmlns:sodipodi="http://sodipodi.sourceforge.net/DTD/sodipodi-0.dtd"
   xmlns="http://www.w3.org/2000/svg"
   xmlns:svg="http://www.w3.org/2000/svg">
  <defs
     id="defs10" />
  <sodipodi:namedview
     id="namedview8"
     pagecolor="#ffffff"
     bordercolor="#000000"
     borderopacity="0.25"
     inkscape:showpageshadow="2"
     inkscape:pageopacity="0.0"
     inkscape:pagecheckerboard="0"
     inkscape:deskcolor="#d1d1d1"
     showgrid="false"
     inkscape:zoom="17.54"
     inkscape:cx="20.153934"
     inkscape:cy="25.028506"
     inkscape:window-width="1920"
     inkscape:window-height="1057"
     inkscape:window-x="-8"
     inkscape:window-y="-8"
     inkscape:window-maximized="1"
     inkscape:current-layer="svg6" />
  <path
     d="M25 42c-9.4 0-17-7.6-17-17S15.6 8 25 8s17 7.6 17 17-7.6 17-17 17zm0-32c-8.3 0-15 6.7-15 15s6.7 15 15 15 15-6.7 15-15-6.7-15-15-15z"
     id="path2"
     style="fill:#ffffff" />
  <path
     d="M19.8 19.6c.3-.8.6-1.4 1.2-1.9.5-.5 1.1-.9 1.9-1.2s1.6-.4 2.5-.4c.7 0 1.4.1 2 .3.6.2 1.2.5 1.7.9s.9.9 1.1 1.5c.3.6.4 1.3.4 2 0 1-.2 1.8-.6 2.5s-1 1.3-1.6 2l-1.3 1.3c-.3.3-.6.6-.7.9-.2.3-.3.7-.3 1.1-.1.4-.1.7-.1 1.5h-1.6c0-.8 0-1.1.1-1.7.1-.5.3-1 .5-1.5.2-.4.5-.8.9-1.2.4-.4.9-.8 1.4-1.4.5-.5.9-1 1.2-1.5s.5-1.2.5-1.8c0-.5-.1-1-.3-1.4-.2-.4-.5-.8-.8-1.1-.3-.3-.7-.5-1.2-.7-.5-.2-.9-.3-1.4-.3-.7 0-1.3.1-1.8.4-.5.2-1 .6-1.3 1-.3.4-.6.9-.8 1.5s-.4.9-.4 1.6h-1.6c0-.9.1-1.6.4-2.4zM26 32v2h-2v-2h2z"
     id="path4"
     style="fill:#ffffff" />
</svg>
