<?xml version="1.0" encoding="UTF-8" standalone="no"?>
<svg
   width="24"
   height="24"
   viewBox="0 0 24 24"
   version="1.1"
   id="svg8"
   sodipodi:docname="save (1).svg"
   inkscape:version="1.2.2 (732a01da63, 2022-12-09)"
   xmlns:inkscape="http://www.inkscape.org/namespaces/inkscape"
   xmlns:sodipodi="http://sodipodi.sourceforge.net/DTD/sodipodi-0.dtd"
   xmlns="http://www.w3.org/2000/svg"
   xmlns:svg="http://www.w3.org/2000/svg">
  <defs
     id="defs12" />
  <sodipodi:namedview
     id="namedview10"
     pagecolor="#ffffff"
     bordercolor="#000000"
     borderopacity="0.25"
     inkscape:showpageshadow="2"
     inkscape:pageopacity="0.0"
     inkscape:pagecheckerboard="0"
     inkscape:deskcolor="#d1d1d1"
     showgrid="false"
     inkscape:zoom="36.541667"
     inkscape:cx="9.6738883"
     inkscape:cy="12.013683"
     inkscape:window-width="1920"
     inkscape:window-height="1057"
     inkscape:window-x="-8"
     inkscape:window-y="-8"
     inkscape:window-maximized="1"
     inkscape:current-layer="svg8" />
  <path
     d="M5,21h14c1.103,0,2-0.897,2-2V8c0-0.265-0.105-0.52-0.293-0.707l-4-4C16.52,3.105,16.266,3,16,3H5C3.897,3,3,3.897,3,5v14 C3,20.103,3.897,21,5,21z M15,19H9v-5h6V19z M13,7h-2V5h2V7z M5,5h2v4h2h2h2h1h1V5h0.586L19,8.414L19.001,19H17v-5 c0-1.103-0.897-2-2-2H9c-1.103,0-2,0.897-2,2v5H5V5z"
     id="path6"
     style="fill:#ffffff" />
</svg>
