<?xml version="1.0" encoding="UTF-8" standalone="no"?>
<svg
   width="24"
   height="24"
   viewBox="0 0 24 24"
   version="1.1"
   id="svg4"
   sodipodi:docname="screenshot.svg"
   inkscape:version="1.2.2 (732a01da63, 2022-12-09)"
   xmlns:inkscape="http://www.inkscape.org/namespaces/inkscape"
   xmlns:sodipodi="http://sodipodi.sourceforge.net/DTD/sodipodi-0.dtd"
   xmlns="http://www.w3.org/2000/svg"
   xmlns:svg="http://www.w3.org/2000/svg">
  <defs
     id="defs8" />
  <sodipodi:namedview
     id="namedview6"
     pagecolor="#ffffff"
     bordercolor="#000000"
     borderopacity="0.25"
     inkscape:showpageshadow="2"
     inkscape:pageopacity="0.0"
     inkscape:pagecheckerboard="0"
     inkscape:deskcolor="#d1d1d1"
     showgrid="false"
     inkscape:zoom="36.541667"
     inkscape:cx="9.5917902"
     inkscape:cy="12.013683"
     inkscape:window-width="1920"
     inkscape:window-height="1057"
     inkscape:window-x="-8"
     inkscape:window-y="-8"
     inkscape:window-maximized="1"
     inkscape:current-layer="svg4" />
  <path
     d="m 19,14 h -2 v 3 h -3 v 2 h 3 v 3 h 2 v -3 h 3 V 17 H 19 Z M 4,19 H 7 V 17 H 5 V 15 H 3 v 3 c 0,0.553 0.447,1 1,1 z M 19,4 C 19,3.447 18.553,3 18,3 h -3 v 2 h 2 v 2 h 2 z M 5,5 H 7 V 3 H 4 C 3.447,3 3,3.447 3,4 V 7 H 5 Z M 3,9 h 2 v 4 H 3 Z m 14,0 h 2 v 3 H 17 Z M 9,3 h 4 V 5 H 9 Z m 0,14 h 3 v 2 H 9 Z"
     id="path2"
     style="display:inline;fill:#ffffff" />
</svg>
