<?xml version="1.0" encoding="UTF-8" standalone="no"?>
<svg
   width="21"
   height="22"
   viewBox="0 0 21 22"
   fill="none"
   version="1.1"
   id="svg4"
   sodipodi:docname="search.svg"
   inkscape:version="1.2.2 (732a01da63, 2022-12-09)"
   xmlns:inkscape="http://www.inkscape.org/namespaces/inkscape"
   xmlns:sodipodi="http://sodipodi.sourceforge.net/DTD/sodipodi-0.dtd"
   xmlns="http://www.w3.org/2000/svg"
   xmlns:svg="http://www.w3.org/2000/svg">
  <defs
     id="defs8" />
  <sodipodi:namedview
     id="namedview6"
     pagecolor="#ffffff"
     bordercolor="#000000"
     borderopacity="0.25"
     inkscape:showpageshadow="2"
     inkscape:pageopacity="0.0"
     inkscape:pagecheckerboard="0"
     inkscape:deskcolor="#d1d1d1"
     showgrid="false"
     inkscape:zoom="39.863636"
     inkscape:cx="10.523375"
     inkscape:cy="11.012543"
     inkscape:window-width="1920"
     inkscape:window-height="1057"
     inkscape:window-x="-8"
     inkscape:window-y="-8"
     inkscape:window-maximized="1"
     inkscape:current-layer="svg4" />
  <path
     d="M19.71 19.2887L14.31 13.8987C15.407 12.5012 16.0022 10.7754 16 8.99872C16 7.41647 15.5308 5.86975 14.6518 4.55416C13.7727 3.23857 12.5233 2.21319 11.0615 1.60769C9.59966 1.00218 7.99113 0.843758 6.43928 1.15244C4.88743 1.46112 3.46197 2.22305 2.34315 3.34187C1.22433 4.46069 0.462403 5.88615 0.153721 7.438C-0.15496 8.98985 0.00346625 10.5984 0.608967 12.0602C1.21447 13.522 2.23985 14.7714 3.55544 15.6505C4.87103 16.5295 6.41775 16.9987 8 16.9987C9.77666 17.0009 11.5025 16.4057 12.9 15.3087L18.29 20.7087C18.383 20.8025 18.4936 20.8768 18.6154 20.9276C18.7373 20.9784 18.868 21.0045 19 21.0045C19.132 21.0045 19.2627 20.9784 19.3846 20.9276C19.5064 20.8768 19.617 20.8025 19.71 20.7087C19.8037 20.6158 19.8781 20.5052 19.9289 20.3833C19.9797 20.2614 20.0058 20.1307 20.0058 19.9987C20.0058 19.8667 19.9797 19.736 19.9289 19.6141C19.8781 19.4923 19.8037 19.3817 19.71 19.2887ZM2 8.99872C2 7.81203 2.3519 6.652 3.01119 5.6653C3.67047 4.67861 4.60755 3.90957 5.7039 3.45544C6.80026 3.00132 8.00666 2.8825 9.17055 3.11401C10.3344 3.34552 11.4035 3.91697 12.2426 4.75608C13.0818 5.5952 13.6532 6.66429 13.8847 7.82818C14.1162 8.99207 13.9974 10.1985 13.5433 11.2948C13.0892 12.3912 12.3201 13.3283 11.3334 13.9875C10.3467 14.6468 9.18669 14.9987 8 14.9987C6.4087 14.9987 4.88258 14.3666 3.75736 13.2414C2.63214 12.1161 2 10.59 2 8.99872Z"
     fill="#231F20"
     id="path2"
     style="fill:#ffffff" />
</svg>
