<?xml version="1.0" encoding="UTF-8" standalone="no"?>
<svg
   height="21"
   viewBox="0 0 21 21"
   width="21"
   version="1.1"
   id="svg16"
   sodipodi:docname="swap.svg"
   inkscape:version="1.2.2 (732a01da63, 2022-12-09)"
   xmlns:inkscape="http://www.inkscape.org/namespaces/inkscape"
   xmlns:sodipodi="http://sodipodi.sourceforge.net/DTD/sodipodi-0.dtd"
   xmlns="http://www.w3.org/2000/svg"
   xmlns:svg="http://www.w3.org/2000/svg">
  <defs
     id="defs20" />
  <sodipodi:namedview
     id="namedview18"
     pagecolor="#ffffff"
     bordercolor="#000000"
     borderopacity="0.25"
     inkscape:showpageshadow="2"
     inkscape:pageopacity="0.0"
     inkscape:pagecheckerboard="0"
     inkscape:deskcolor="#d1d1d1"
     showgrid="false"
     inkscape:zoom="41.761905"
     inkscape:cx="8.4646522"
     inkscape:cy="10.511973"
     inkscape:window-width="1920"
     inkscape:window-height="1057"
     inkscape:window-x="-8"
     inkscape:window-y="-8"
     inkscape:window-maximized="1"
     inkscape:current-layer="svg16" />
  <g
     fill="none"
     fill-rule="evenodd"
     stroke="currentColor"
     stroke-linecap="round"
     stroke-linejoin="round"
     transform="matrix(0 1 -1 0 18.5 2.5)"
     id="g14"
     style="stroke:#ffffff;stroke-opacity:1">
    <g
       transform="matrix(0 -1 1 0 .5 16.5)"
       id="g6"
       style="stroke:#ffffff;stroke-opacity:1">
      <path
         d="m16 0v5h-5"
         transform="matrix(0 1 1 0 11 -11)"
         id="path2"
         style="stroke:#ffffff;stroke-opacity:1" />
      <path
         d="m16 5c-2.8366699-3.33333333-5.6700033-5-8.5-5-2.82999674 0-5.32999674 1-7.5 3"
         id="path4"
         style="stroke:#ffffff;stroke-opacity:1" />
    </g>
    <g
       transform="matrix(0 1 -1 0 14 1)"
       id="g12"
       style="stroke:#ffffff;stroke-opacity:1">
      <path
         d="m16 0v5h-5"
         transform="matrix(0 1 1 0 11 -11)"
         id="path8"
         style="stroke:#ffffff;stroke-opacity:1" />
      <path
         d="m16 5c-2.8366699-3.33333333-5.6700033-5-8.5-5-2.82999674 0-5.32999674 1-7.5 3"
         id="path10"
         style="stroke:#ffffff;stroke-opacity:1" />
    </g>
  </g>
</svg>
