<?xml version="1.0" encoding="UTF-8" standalone="no"?>
<svg
   id="icon"
   viewBox="0 0 32 32"
   version="1.1"
   sodipodi:docname="text-selection.svg"
   inkscape:version="1.2.2 (732a01da63, 2022-12-09)"
   xmlns:inkscape="http://www.inkscape.org/namespaces/inkscape"
   xmlns:sodipodi="http://sodipodi.sourceforge.net/DTD/sodipodi-0.dtd"
   xmlns="http://www.w3.org/2000/svg"
   xmlns:svg="http://www.w3.org/2000/svg">
  <sodipodi:namedview
     id="namedview14"
     pagecolor="#ffffff"
     bordercolor="#000000"
     borderopacity="0.25"
     inkscape:showpageshadow="2"
     inkscape:pageopacity="0.0"
     inkscape:pagecheckerboard="0"
     inkscape:deskcolor="#d1d1d1"
     showgrid="false"
     inkscape:zoom="27.40625"
     inkscape:cx="15.981756"
     inkscape:cy="16.018244"
     inkscape:window-width="1920"
     inkscape:window-height="1057"
     inkscape:window-x="-8"
     inkscape:window-y="-8"
     inkscape:window-maximized="1"
     inkscape:current-layer="icon" />
  <defs
     id="defs4">
    <style
       id="style2">.cls-1{fill:none;}</style>
  </defs>
  <title
     id="title6">text-selection</title>
  <path
     d="M28,27H21a3,3,0,0,1-3-3V22a3,3,0,0,1,3-3h5V17a1,1,0,0,0-1-1H19V14h6a3,3,0,0,1,3,3Zm-7-6a1,1,0,0,0-1,1v2a1,1,0,0,0,1,1h5V21Z"
     id="path8"
     style="fill:#ffffff" />
  <path
     d="M13,7h3V5H13a4,4,0,0,0-3,1.38A4,4,0,0,0,7,5H4V7H7A2,2,0,0,1,9,9v5H5v2H9v7a2,2,0,0,1-2,2H4v2H7a4,4,0,0,0,3-1.38A4,4,0,0,0,13,27h3V25H13a2,2,0,0,1-2-2V16h4V14H11V9A2,2,0,0,1,13,7Z"
     id="path10"
     style="fill:#ffffff" />
  <rect
     id="_Transparent_Rectangle_"
     data-name="&lt;Transparent Rectangle&gt;"
     class="cls-1"
     width="32"
     height="32" />
</svg>
