<?xml version="1.0" encoding="UTF-8" standalone="no"?>
<svg
   width="24"
   height="24"
   viewBox="0 0 24 24"
   version="1.1"
   id="svg4"
   sodipodi:docname="unlink.svg"
   inkscape:version="1.2.2 (732a01da63, 2022-12-09)"
   xmlns:inkscape="http://www.inkscape.org/namespaces/inkscape"
   xmlns:sodipodi="http://sodipodi.sourceforge.net/DTD/sodipodi-0.dtd"
   xmlns="http://www.w3.org/2000/svg"
   xmlns:svg="http://www.w3.org/2000/svg">
  <defs
     id="defs8" />
  <sodipodi:namedview
     id="namedview6"
     pagecolor="#ffffff"
     bordercolor="#000000"
     borderopacity="0.25"
     inkscape:showpageshadow="2"
     inkscape:pageopacity="0.0"
     inkscape:pagecheckerboard="0"
     inkscape:deskcolor="#d1d1d1"
     showgrid="false"
     inkscape:zoom="36.541667"
     inkscape:cx="11.904219"
     inkscape:cy="12.013683"
     inkscape:window-width="1920"
     inkscape:window-height="1057"
     inkscape:window-x="-8"
     inkscape:window-y="-8"
     inkscape:window-maximized="1"
     inkscape:current-layer="svg4" />
  <path
     d="M16.949 14.121L19.071 12c1.948-1.949 1.948-5.122 0-7.071-1.95-1.95-5.123-1.948-7.071 0l-.707.707 1.414 1.414.707-.707c1.169-1.167 3.072-1.169 4.243 0 1.169 1.17 1.169 3.073 0 4.243l-2.122 2.121c-.247.247-.534.435-.844.57L13.414 12l1.414-1.414-.707-.707c-.943-.944-2.199-1.465-3.535-1.465-.235 0-.464.032-.691.066L3.707 2.293 2.293 3.707l18 18 1.414-1.414-5.536-5.536C16.448 14.573 16.709 14.361 16.949 14.121zM10.586 17.657c-1.169 1.167-3.072 1.169-4.243 0-1.169-1.17-1.169-3.073 0-4.243l1.476-1.475-1.414-1.414L4.929 12c-1.948 1.949-1.948 5.122 0 7.071.975.975 2.255 1.462 3.535 1.462 1.281 0 2.562-.487 3.536-1.462l.707-.707-1.414-1.414L10.586 17.657z"
     id="path2"
     style="fill:#ffffff" />
</svg>
